<?xml version="1.0" encoding="utf-8"?>
<!-- Generator: Adobe Illustrator 17.1.0, SVG Export Plug-In . SVG Version: 6.00 Build 0)  -->
<!DOCTYPE svg PUBLIC "-//W3C//DTD SVG 1.1//EN" "http://www.w3.org/Graphics/SVG/1.1/DTD/svg11.dtd">
<svg version="1.1" id="Layer_1" xmlns="http://www.w3.org/2000/svg" xmlns:xlink="http://www.w3.org/1999/xlink" x="0px" y="0px"
	 viewBox="115.9 218.8 78.8 12.2" enable-background="new 115.9 218.8 78.8 12.2" xml:space="preserve">
<g>
	<path d="M165.4,224l-1-0.4c-1.5-0.6-2.1-1.1-2.1-2.1c0-1,0.8-1.6,2.1-1.6c1.2,0,1.9,0.5,2.4,1.3l1.1-0.6c-0.7-1-1.8-1.7-3.5-1.7
		c-2,0-3.4,1.1-3.4,2.8c0,1.6,1,2.4,2.9,3.2l1,0.4c1.8,0.5,2.6,1.1,2.4,2.4c-0.1,1.2-1.2,2-2.7,2c-1.8,0-2.7-0.8-3.3-1.8l-1.1,0.5
		c0.7,1.2,2,2.3,4.5,2.3c2.3,0,4-1.2,4-3.1C168.7,225.8,167.6,224.9,165.4,224z"/>
	<polygon points="116.5,220.5 120.2,220.5 120.2,230.6 121.6,230.6 121.6,220.5 125.3,220.5 125.3,219.1 116.5,219.1 	"/>
	<polygon points="139.9,219.1 138.5,219.1 138.5,230.6 146.3,230.6 146.3,229.3 139.9,229.3 	"/>
</g>
<g>
	<rect x="127.5" y="224.2" width="8.5" height="1.3"/>
	<rect x="127.5" y="229.3" width="8.5" height="1.3"/>
	<rect x="127.5" y="219.2" width="8.5" height="1.3"/>
</g>
<g>
	<rect x="148.5" y="224.2" width="8.5" height="1.3"/>
	<rect x="148.5" y="229.3" width="8.5" height="1.3"/>
	<rect x="148.5" y="219.2" width="8.5" height="1.3"/>
</g>
<polygon points="170.2,220.5 174,220.5 174,230.6 175.4,230.6 175.4,220.5 179.1,220.5 179.1,219.1 170.2,219.1 "/>
<path d="M182.6,224.9c0-3.3,2.4-5.7,5.6-5.7c3.3,0,5.7,2.4,5.7,5.7c0,3.3-2.4,5.7-5.7,5.7C184.9,230.6,182.6,228.2,182.6,224.9z
	 M192.4,224.9c0-2.6-1.8-4.4-4.2-4.4c-2.4,0-4.2,1.9-4.2,4.4s1.8,4.4,4.2,4.4C190.6,229.3,192.4,227.5,192.4,224.9z"/>
</svg>
